<?xml version="1.0" standalone="no"?>
<!DOCTYPE svg PUBLIC "-//W3C//DTD SVG 20010904//EN"
 "http://www.w3.org/TR/2001/REC-SVG-20010904/DTD/svg10.dtd">
<svg version="1.0" xmlns="http://www.w3.org/2000/svg"
 width="374.000000pt" height="374.000000pt" viewBox="0 0 374.000000 374.000000"
 preserveAspectRatio="xMidYMid meet">
<metadata>
Created by potrace 1.14, written by Peter Selinger 2001-2017
</metadata>
<g transform="translate(0.000000,374.000000) scale(0.100000,-0.100000)"
fill="#000000" stroke="none">
<path d="M1733 3694 c31 -15 57 -30 57 -35 0 -4 -109 -9 -242 -11 -230 -3
-291 -10 -257 -29 8 -4 51 -12 95 -18 66 -9 98 -9 169 4 48 8 111 15 139 15
60 0 139 -34 203 -86 44 -36 58 -62 26 -49 -45 20 -192 55 -228 55 -22 0 -104
-16 -182 -36 l-143 -35 -88 25 c-48 13 -123 28 -167 31 -73 6 -85 4 -119 -16
-34 -20 -36 -23 -19 -33 10 -6 94 -11 198 -12 136 -2 191 -6 224 -18 53 -19
206 -100 241 -126 l25 -19 -40 5 c-22 3 -86 17 -142 30 l-102 23 -108 -20
c-67 -12 -194 -24 -337 -30 -264 -12 -344 -29 -181 -39 81 -5 123 -14 224 -49
69 -23 145 -45 170 -48 27 -3 100 4 174 17 71 12 131 20 134 17 7 -8 -47 -30
-192 -79 -135 -46 -143 -47 -430 -30 -237 13 -338 -3 -403 -63 l-37 -34 120 0
c66 0 162 4 213 9 89 8 98 7 220 -27 70 -19 167 -43 215 -53 l89 -19 96 32
c54 17 100 36 104 41 3 5 9 29 13 53 l6 44 647 -3 647 -3 56 -23 c76 -30 142
-90 176 -160 27 -55 28 -63 27 -197 0 -130 -4 -157 -52 -375 -28 -130 -60
-261 -71 -293 -57 -164 -168 -307 -289 -370 -130 -68 -143 -70 -591 -74 l-404
-5 6 24 c3 13 18 82 33 155 l27 132 386 3 c374 3 387 4 426 25 54 29 110 89
134 144 31 69 111 460 111 539 0 81 -24 124 -85 155 -38 19 -60 20 -504 20
l-465 0 -212 -1000 c-118 -550 -212 -1007 -211 -1015 1 -8 43 -53 92 -100 50
-47 96 -93 103 -102 12 -16 10 -17 -20 -11 -18 3 -72 16 -120 28 l-88 22 -11
-40 c-6 -22 -11 -58 -12 -81 -2 -39 0 -41 28 -44 103 -10 402 -109 383 -127
-2 -2 -58 2 -123 10 -66 8 -165 15 -221 15 l-102 0 -13 -57 -14 -58 -49 -5
-50 -5 100 -42 c122 -51 267 -94 399 -119 80 -15 147 -19 335 -19 206 0 249 3
350 23 280 57 507 156 724 316 384 282 643 676 731 1110 58 284 50 615 -19
884 -150 578 -632 1088 -1207 1276 -192 63 -296 78 -554 82 l-230 4 58 -26z"/>
<path d="M830 2806 c-25 -7 -72 -26 -105 -41 -33 -15 -150 -58 -260 -95 -277
-94 -314 -109 -326 -131 -14 -27 -6 -35 48 -49 85 -21 108 -42 159 -146 27
-54 58 -103 73 -113 14 -10 89 -50 167 -89 146 -74 190 -106 161 -118 -8 -3
-82 -4 -165 -2 l-149 3 -69 46 c-101 67 -128 79 -179 79 -80 0 -165 -59 -165
-114 0 -52 33 -91 102 -124 86 -41 137 -47 227 -27 127 29 166 21 339 -73 83
-45 174 -89 202 -98 65 -21 152 -14 240 19 l64 24 112 529 c62 291 111 530
110 531 -1 1 -21 -11 -45 -27 -74 -50 -89 -50 -381 15 -78 18 -101 18 -160 1z"/>
<path d="M1110 1662 c-85 -42 -196 -65 -280 -59 -36 3 -117 22 -180 42 -162
51 -215 48 -319 -17 -34 -21 -77 -34 -152 -47 -108 -20 -139 -29 -139 -40 1
-28 22 -32 187 -36 187 -3 189 -4 317 -88 45 -29 58 -32 141 -35 50 -2 150 4
223 12 158 20 189 13 121 -27 -74 -43 -174 -86 -265 -112 -103 -30 -187 -32
-359 -9 -65 8 -136 12 -159 8 -64 -11 -124 -84 -81 -100 8 -4 57 6 108 20 148
42 164 38 302 -69 103 -80 107 -82 190 -90 72 -8 179 -36 227 -61 24 -12 27
-12 32 4 10 34 156 735 154 736 -2 1 -32 -14 -68 -32z"/>
<path d="M443 927 c-35 -19 -103 -87 -103 -102 0 -8 4 -16 9 -19 5 -3 94 -17
197 -31 104 -14 215 -31 246 -37 48 -10 65 -9 117 7 34 10 65 23 69 29 11 14
37 125 31 130 -2 3 -31 -2 -64 -9 -173 -40 -307 -35 -408 15 -68 34 -65 33
-94 17z"/>
<path d="M690 533 c-38 -19 -49 -45 -30 -68 10 -12 40 -15 135 -15 l122 0 7
41 c4 23 5 44 2 46 -2 3 -49 7 -103 10 -82 4 -104 1 -133 -14z"/>
</g>
</svg>
