<?xml version="1.0" encoding="utf-8"?>
<!-- Generator: Adobe Illustrator 26.1.0, SVG Export Plug-In . SVG Version: 6.00 Build 0)  -->
<svg version="1.1" id="Layer_1" xmlns="http://www.w3.org/2000/svg" xmlns:xlink="http://www.w3.org/1999/xlink" x="0px" y="0px"
	 viewBox="0 0 786.8 572.3" style="enable-background:new 0 0 786.8 572.3;" xml:space="preserve">
<style type="text/css">
	.st0{fill:#F2F2F2;}
	.st1{fill:#3F3F46;}
	.st2{fill:#3F3D56;}
	.st3{fill:#7828C8;}
	.st4{fill:#2F2E41;}
	.st5{fill:#FFFFFF;}
	.st6{fill:#FFB6B6;}
	.st7{fill:#18181B;}
	.st8{fill:#E6E6E6;}
	.st9{opacity:0.2;enable-background:new    ;}
</style>
<circle class="st0" cx="458.3" cy="74.2" r="26.7"/>
<path class="st0" d="M665.5,497.1c39.7-30.2,58.6-81,46.8-129.5c-0.3-1.2-0.6-2.4-0.9-3.6c-7.9-28.8-27.3-56.1-55.7-65.3
	c-23.8-7.7-49.8-1.8-74.7-4.9c-48.8-6-86.6-45.5-113.2-86.8s-47.1-87.6-82.4-121.7C327,29.1,231.9,17,159.7,53.6
	S41.4,171.5,43.3,252.5S93.4,411,163.2,452c25.7,15.1,55.3,25.8,84.8,22c25.6-3.2,48.9-17,74.4-21.1c40.1-6.4,79.9,11.7,114.6,32.8
	s68.2,46.2,107.6,56C582.9,551.3,630.3,523.9,665.5,497.1z"/>
<path class="st1" d="M608.4,55.3c-0.9-0.6-1.8-1.1-2.6-1.7c-25.2-16.1-52.1-29.1-80.3-38.9l-6.5,90.2h-41.5V1.5
	c-2.6-0.5-5.2-1-7.9-1.5v104.9h-49.3c-56.5,0-102.3-45.8-102.3-102.3l0,0c-2.6,0.6-5.3,1.2-7.9,1.8v100.4h-40.1l-6.2-86
	c-29,11.1-56.5,25.7-81.9,43.5l-1.3,0.9c-2.2,1.5-4.4,3.1-6.6,4.7v344.2h118.3l-2.1-29l-11.5-159h231.6l-11.5,159l-2.1,29h117V58.8
	C612,57.6,610.2,56.4,608.4,55.3z M310.2,198.1h-33.4l-6.2-85.3h39.6V198.1z M469.6,198.1h-56.1v-1.7c0-3.4-2.8-6.2-6.2-6.2H383
	c-3.4,0-6.2,2.8-6.2,6.2c0,0,0,0,0,0l0,0v1.7h-58.7v-85.3h151.5V198.1z M477.5,198.1v-85.3h40.9l-6.2,85.3H477.5z"/>
<path class="st1" d="M0,434.3c8.7,10.3,18.1,20,28.1,29l730.6,1c10-9,19.4-18.7,28.1-29L0,434.3z"/>
<path class="st2" d="M495.4,341.6v85.7c0,2.3,1.8,4.1,4.1,4.1c0,0,0,0,0,0h127c2.3,0,4.1-1.8,4.1-4.1c0,0,0,0,0,0v-85.7
	c0-2.3-1.8-4.1-4.1-4.1c0,0,0,0,0,0h-127C497.3,337.5,495.4,339.3,495.4,341.6z"/>
<path class="st3" d="M498.4,342.7v83.6c0,1.2,1,2.2,2.2,2.2h124.9c1.2,0,2.2-1,2.2-2.2v-83.6c0-1.2-1-2.2-2.2-2.2H500.6
	C499.4,340.5,498.4,341.4,498.4,342.7C498.4,342.7,498.4,342.7,498.4,342.7z"/>
<path class="st4" d="M492.8,444c0.5,0.6,1.2,0.9,2,0.9h136c1.4,0,2.5-1.1,2.5-2.5c0,0,0,0,0,0c0-0.2,0-0.3,0-0.5l-2.1-10
	c-0.2-1.2-1.3-2-2.4-2H496.8c-0.3,0-0.6,0.1-0.9,0.2c-0.8,0.3-1.4,1-1.6,1.8l-2.1,10C492.1,442.6,492.3,443.4,492.8,444z"/>
<path class="st2" d="M623.9,431.7h3.2c0.3,0,0.5,0.2,0.5,0.5v1.5c0,0.3-0.2,0.5-0.5,0.5h-3.2c-0.3,0-0.5-0.2-0.5-0.5v-1.5
	C623.4,431.9,623.7,431.7,623.9,431.7z"/>
<path class="st2" d="M615.6,431.7h3.2c0.3,0,0.5,0.2,0.5,0.5v1.5c0,0.3-0.2,0.5-0.5,0.5h-3.2c-0.3,0-0.5-0.2-0.5-0.5v-1.5
	C615.1,431.9,615.3,431.7,615.6,431.7z"/>
<path class="st2" d="M607.2,431.7h3.2c0.3,0,0.5,0.2,0.5,0.5v1.5c0,0.3-0.2,0.5-0.5,0.5h-3.2c-0.3,0-0.5-0.2-0.5-0.5v-1.5
	C606.7,431.9,606.9,431.7,607.2,431.7z"/>
<path class="st2" d="M598.8,431.7h3.2c0.3,0,0.5,0.2,0.5,0.5v1.5c0,0.3-0.2,0.5-0.5,0.5h-3.2c-0.3,0-0.5-0.2-0.5-0.5v-1.5
	C598.3,431.9,598.5,431.7,598.8,431.7z"/>
<path class="st2" d="M590.4,431.7h3.2c0.3,0,0.5,0.2,0.5,0.5v1.5c0,0.3-0.2,0.5-0.5,0.5h-3.2c-0.3,0-0.5-0.2-0.5-0.5v-1.5
	C589.9,431.9,590.2,431.7,590.4,431.7z"/>
<path class="st2" d="M582,431.7h3.2c0.3,0,0.5,0.2,0.5,0.5v1.5c0,0.3-0.2,0.5-0.5,0.5H582c-0.3,0-0.5-0.2-0.5-0.5v-1.5
	C581.6,431.9,581.8,431.7,582,431.7z"/>
<path class="st2" d="M573.7,431.7h3.2c0.3,0,0.5,0.2,0.5,0.5v1.5c0,0.3-0.2,0.5-0.5,0.5h-3.2c-0.3,0-0.5-0.2-0.5-0.5v-1.5
	C573.2,431.9,573.4,431.7,573.7,431.7z"/>
<path class="st2" d="M565.3,431.7h3.2c0.3,0,0.5,0.2,0.5,0.5v1.5c0,0.3-0.2,0.5-0.5,0.5h-3.2c-0.3,0-0.5-0.2-0.5-0.5v-1.5
	C564.8,431.9,565,431.7,565.3,431.7z"/>
<path class="st2" d="M556.9,431.7h3.2c0.3,0,0.5,0.2,0.5,0.5v1.5c0,0.3-0.2,0.5-0.5,0.5h-3.2c-0.3,0-0.5-0.2-0.5-0.5v-1.5
	C556.4,431.9,556.6,431.7,556.9,431.7z"/>
<path class="st2" d="M548.5,431.7h3.2c0.3,0,0.5,0.2,0.5,0.5v1.5c0,0.3-0.2,0.5-0.5,0.5h-3.2c-0.3,0-0.5-0.2-0.5-0.5v-1.5
	C548,431.9,548.3,431.7,548.5,431.7z"/>
<path class="st2" d="M540.2,431.7h3.2c0.3,0,0.5,0.2,0.5,0.5v1.5c0,0.3-0.2,0.5-0.5,0.5h-3.2c-0.3,0-0.5-0.2-0.5-0.5v-1.5
	C539.7,431.9,539.9,431.7,540.2,431.7z"/>
<path class="st2" d="M531.8,431.7h3.2c0.3,0,0.5,0.2,0.5,0.5v1.5c0,0.3-0.2,0.5-0.5,0.5h-3.2c-0.3,0-0.5-0.2-0.5-0.5v-1.5
	C531.3,431.9,531.5,431.7,531.8,431.7z"/>
<path class="st2" d="M523.4,431.7h3.2c0.3,0,0.5,0.2,0.5,0.5v1.5c0,0.3-0.2,0.5-0.5,0.5h-3.2c-0.3,0-0.5-0.2-0.5-0.5v-1.5
	C522.9,431.9,523.1,431.7,523.4,431.7z"/>
<path class="st2" d="M515,431.7h3.2c0.3,0,0.5,0.2,0.5,0.5v1.5c0,0.3-0.2,0.5-0.5,0.5H515c-0.3,0-0.5-0.2-0.5-0.5v-1.5
	C514.5,431.9,514.8,431.7,515,431.7z"/>
<path class="st2" d="M506.7,431.7h3.2c0.3,0,0.5,0.2,0.5,0.5v1.5c0,0.3-0.2,0.5-0.5,0.5h-3.2c-0.3,0-0.5-0.2-0.5-0.5v-1.5
	C506.2,431.9,506.4,431.7,506.7,431.7z"/>
<path class="st2" d="M498.3,431.7h3.2c0.3,0,0.5,0.2,0.5,0.5v1.5c0,0.3-0.2,0.5-0.5,0.5h-3.2c-0.3,0-0.5-0.2-0.5-0.5v-1.5
	C497.8,431.9,498,431.7,498.3,431.7z"/>
<path class="st2" d="M624,435.9h3.2c0.3,0,0.5,0.2,0.5,0.5v1.5c0,0.3-0.2,0.5-0.5,0.5H624c-0.3,0-0.5-0.2-0.5-0.5v-1.5
	C623.5,436.1,623.8,435.9,624,435.9z"/>
<path class="st2" d="M615.7,435.9h3.2c0.3,0,0.5,0.2,0.5,0.5v1.5c0,0.3-0.2,0.5-0.5,0.5h-3.2c-0.3,0-0.5-0.2-0.5-0.5v-1.5
	C615.2,436.1,615.4,435.9,615.7,435.9z"/>
<path class="st2" d="M607.3,435.9h3.2c0.3,0,0.5,0.2,0.5,0.5v1.5c0,0.3-0.2,0.5-0.5,0.5h-3.2c-0.3,0-0.5-0.2-0.5-0.5v-1.5
	C606.8,436.1,607,435.9,607.3,435.9z"/>
<path class="st2" d="M598.9,435.9h3.2c0.3,0,0.5,0.2,0.5,0.5v1.5c0,0.3-0.2,0.5-0.5,0.5h-3.2c-0.3,0-0.5-0.2-0.5-0.5v-1.5
	C598.4,436.1,598.6,435.9,598.9,435.9z"/>
<path class="st2" d="M590.5,435.9h3.2c0.3,0,0.5,0.2,0.5,0.5v1.5c0,0.3-0.2,0.5-0.5,0.5h-3.2c-0.3,0-0.5-0.2-0.5-0.5v-1.5
	C590,436.1,590.2,435.9,590.5,435.9z"/>
<path class="st2" d="M582.1,435.9h3.2c0.3,0,0.5,0.2,0.5,0.5v1.5c0,0.3-0.2,0.5-0.5,0.5h-3.2c-0.3,0-0.5-0.2-0.5-0.5v-1.5
	C581.7,436.1,581.9,435.9,582.1,435.9z"/>
<path class="st2" d="M573.8,435.9h3.2c0.3,0,0.5,0.2,0.5,0.5v1.5c0,0.3-0.2,0.5-0.5,0.5h-3.2c-0.3,0-0.5-0.2-0.5-0.5v-1.5
	C573.3,436.1,573.5,435.9,573.8,435.9z"/>
<path class="st2" d="M565.4,435.9h3.2c0.3,0,0.5,0.2,0.5,0.5v1.5c0,0.3-0.2,0.5-0.5,0.5h-3.2c-0.3,0-0.5-0.2-0.5-0.5v-1.5
	C564.9,436.1,565.1,435.9,565.4,435.9z"/>
<path class="st2" d="M557,435.9h3.2c0.3,0,0.5,0.2,0.5,0.5v1.5c0,0.3-0.2,0.5-0.5,0.5H557c-0.3,0-0.5-0.2-0.5-0.5v-1.5
	C556.5,436.1,556.7,435.9,557,435.9z"/>
<path class="st2" d="M548.6,435.9h3.2c0.3,0,0.5,0.2,0.5,0.5v1.5c0,0.3-0.2,0.5-0.5,0.5h-3.2c-0.3,0-0.5-0.2-0.5-0.5v-1.5
	C548.2,436.1,548.4,435.9,548.6,435.9z"/>
<path class="st2" d="M540.3,435.9h3.2c0.3,0,0.5,0.2,0.5,0.5v1.5c0,0.3-0.2,0.5-0.5,0.5h-3.2c-0.3,0-0.5-0.2-0.5-0.5v-1.5
	C539.8,436.1,540,435.9,540.3,435.9z"/>
<path class="st2" d="M531.9,435.9h3.2c0.3,0,0.5,0.2,0.5,0.5v1.5c0,0.3-0.2,0.5-0.5,0.5h-3.2c-0.3,0-0.5-0.2-0.5-0.5v-1.5
	C531.4,436.1,531.6,435.9,531.9,435.9z"/>
<path class="st2" d="M523.5,435.9h3.2c0.3,0,0.5,0.2,0.5,0.5v1.5c0,0.3-0.2,0.5-0.5,0.5h-3.2c-0.3,0-0.5-0.2-0.5-0.5v-1.5
	C523,436.1,523.2,435.9,523.5,435.9z"/>
<path class="st2" d="M515.1,435.9h3.2c0.3,0,0.5,0.2,0.5,0.5v1.5c0,0.3-0.2,0.5-0.5,0.5h-3.2c-0.3,0-0.5-0.2-0.5-0.5v-1.5
	C514.6,436.1,514.9,435.9,515.1,435.9z"/>
<path class="st2" d="M506.8,435.9h3.2c0.3,0,0.5,0.2,0.5,0.5v1.5c0,0.3-0.2,0.5-0.5,0.5h-3.2c-0.3,0-0.5-0.2-0.5-0.5v-1.5
	C506.3,436.1,506.5,435.9,506.8,435.9z"/>
<path class="st2" d="M498.4,435.9h3.2c0.3,0,0.5,0.2,0.5,0.5v1.5c0,0.3-0.2,0.5-0.5,0.5h-3.2c-0.3,0-0.5-0.2-0.5-0.5v-1.5
	C497.9,436.1,498.1,435.9,498.4,435.9z"/>
<path class="st2" d="M554.5,440.9H587c0.3,0,0.5,0.2,0.5,0.5v1.5c0,0.3-0.2,0.5-0.5,0.5h-32.5c-0.3,0-0.5-0.2-0.5-0.5v-1.5
	C554,441.1,554.2,440.9,554.5,440.9z"/>
<path class="st5" d="M517.2,358.7h2.8c0.9,0,1.6,0.7,1.6,1.6l0,0c0,0.9-0.7,1.6-1.6,1.6h-2.8c-0.9,0-1.6-0.7-1.6-1.6l0,0
	C515.6,359.4,516.3,358.7,517.2,358.7z"/>
<path class="st5" d="M549.7,358.7h2.8c0.9,0,1.6,0.7,1.6,1.6l0,0c0,0.9-0.7,1.6-1.6,1.6h-2.8c-0.9,0-1.6-0.7-1.6-1.6l0,0
	C548.2,359.4,548.8,358.7,549.7,358.7z"/>
<path class="st5" d="M558.9,358.7h2.8c0.9,0,1.6,0.7,1.6,1.6l0,0c0,0.9-0.7,1.6-1.6,1.6h-2.8c-0.9,0-1.6-0.7-1.6-1.6l0,0
	C557.4,359.4,558.1,358.7,558.9,358.7z"/>
<path class="st5" d="M526,358.5h17.7c0.9,0,1.6,0.7,1.6,1.6l0,0c0,0.9-0.7,1.6-1.6,1.6H526c-0.9,0-1.6-0.7-1.6-1.6l0,0
	C524.5,359.2,525.2,358.5,526,358.5z"/>
<path class="st5" d="M569.4,358.5h17.7c0.9,0,1.6,0.7,1.6,1.6l0,0c0,0.9-0.7,1.6-1.6,1.6h-17.7c-0.9,0-1.6-0.7-1.6-1.6l0,0
	C567.8,359.2,568.5,358.5,569.4,358.5z"/>
<path class="st5" d="M525.9,365.8h2.8c0.9,0,1.6,0.7,1.6,1.6l0,0c0,0.9-0.7,1.6-1.6,1.6h-2.8c-0.9,0-1.6-0.7-1.6-1.6l0,0
	C524.3,366.5,525,365.8,525.9,365.8z"/>
<path class="st5" d="M558.4,365.8h2.8c0.9,0,1.6,0.7,1.6,1.6l0,0c0,0.9-0.7,1.6-1.6,1.6h-2.8c-0.9,0-1.6-0.7-1.6-1.6l0,0
	C556.8,366.5,557.5,365.8,558.4,365.8z"/>
<path class="st5" d="M567.6,365.8h2.8c0.9,0,1.6,0.7,1.6,1.6l0,0c0,0.9-0.7,1.6-1.6,1.6h-2.8c-0.9,0-1.6-0.7-1.6-1.6l0,0
	C566,366.5,566.7,365.8,567.6,365.8z"/>
<path class="st5" d="M534.7,365.5h17.7c0.9,0,1.6,0.7,1.6,1.6l0,0c0,0.9-0.7,1.6-1.6,1.6h-17.7c-0.9,0-1.6-0.7-1.6-1.6l0,0
	C533.2,366.2,533.8,365.5,534.7,365.5z"/>
<path class="st5" d="M578.1,365.5h17.7c0.9,0,1.6,0.7,1.6,1.6l0,0c0,0.9-0.7,1.6-1.6,1.6h-17.7c-0.9,0-1.6-0.7-1.6-1.6l0,0
	C576.5,366.2,577.2,365.5,578.1,365.5z"/>
<path class="st5" d="M534.5,372.8h2.8c0.9,0,1.6,0.7,1.6,1.6l0,0c0,0.9-0.7,1.6-1.6,1.6h-2.8c-0.9,0-1.6-0.7-1.6-1.6l0,0
	C533,373.5,533.7,372.8,534.5,372.8z"/>
<path class="st5" d="M567.1,372.8h2.8c0.9,0,1.6,0.7,1.6,1.6l0,0c0,0.9-0.7,1.6-1.6,1.6h-2.8c-0.9,0-1.6-0.7-1.6-1.6l0,0
	C565.5,373.5,566.2,372.8,567.1,372.8z"/>
<path class="st5" d="M576.3,372.8h2.8c0.9,0,1.6,0.7,1.6,1.6l0,0c0,0.9-0.7,1.6-1.6,1.6h-2.8c-0.9,0-1.6-0.7-1.6-1.6l0,0
	C574.7,373.5,575.4,372.8,576.3,372.8z"/>
<path class="st5" d="M543.4,372.6h17.7c0.9,0,1.6,0.7,1.6,1.6l0,0c0,0.9-0.7,1.6-1.6,1.6h-17.7c-0.9,0-1.6-0.7-1.6-1.6l0,0
	C541.8,373.3,542.5,372.6,543.4,372.6z"/>
<path class="st5" d="M586.8,372.6h17.7c0.9,0,1.6,0.7,1.6,1.6l0,0c0,0.9-0.7,1.6-1.6,1.6h-17.7c-0.9,0-1.6-0.7-1.6-1.6l0,0
	C585.2,373.3,585.9,372.6,586.8,372.6z"/>
<path class="st5" d="M543.2,379.9h2.8c0.9,0,1.6,0.7,1.6,1.6l0,0c0,0.9-0.7,1.6-1.6,1.6h-2.8c-0.9,0-1.6-0.7-1.6-1.6l0,0
	C541.7,380.6,542.3,379.9,543.2,379.9z"/>
<path class="st5" d="M575.7,379.9h2.8c0.9,0,1.6,0.7,1.6,1.6l0,0c0,0.9-0.7,1.6-1.6,1.6h-2.8c-0.9,0-1.6-0.7-1.6-1.6l0,0
	C574.2,380.6,574.9,379.9,575.7,379.9z"/>
<path class="st5" d="M585,379.9h2.8c0.9,0,1.6,0.7,1.6,1.6l0,0c0,0.9-0.7,1.6-1.6,1.6H585c-0.9,0-1.6-0.7-1.6-1.6l0,0
	C583.4,380.6,584.1,379.9,585,379.9z"/>
<path class="st5" d="M552.1,379.6h17.7c0.9,0,1.6,0.7,1.6,1.6l0,0c0,0.9-0.7,1.6-1.6,1.6h-17.7c-0.9,0-1.6-0.7-1.6-1.6l0,0
	C550.5,380.3,551.2,379.6,552.1,379.6z"/>
<path class="st5" d="M549.7,407.9h2.8c0.9,0,1.6,0.7,1.6,1.6l0,0c0,0.9-0.7,1.6-1.6,1.6h-2.8c-0.9,0-1.6-0.7-1.6-1.6l0,0
	C548.2,408.6,548.8,407.9,549.7,407.9z"/>
<path class="st5" d="M558.9,407.9h2.8c0.9,0,1.6,0.7,1.6,1.6l0,0c0,0.9-0.7,1.6-1.6,1.6h-2.8c-0.9,0-1.6-0.7-1.6-1.6l0,0
	C557.4,408.6,558.1,407.9,558.9,407.9z"/>
<path class="st5" d="M569.4,408.2h17.7c0.9,0,1.6,0.7,1.6,1.6l0,0c0,0.9-0.7,1.6-1.6,1.6h-17.7c-0.9,0-1.6-0.7-1.6-1.6l0,0
	C567.8,408.9,568.5,408.2,569.4,408.2z"/>
<path class="st5" d="M517.2,407.9h2.8c0.9,0,1.6,0.7,1.6,1.6l0,0c0,0.9-0.7,1.6-1.6,1.6h-2.8c-0.9,0-1.6-0.7-1.6-1.6l0,0
	C515.6,408.6,516.3,407.9,517.2,407.9z"/>
<path class="st5" d="M526,408.2h17.7c0.9,0,1.6,0.7,1.6,1.6l0,0c0,0.9-0.7,1.6-1.6,1.6H526c-0.9,0-1.6-0.7-1.6-1.6l0,0
	C524.5,408.9,525.2,408.2,526,408.2z"/>
<path class="st5" d="M525.9,400.9h2.8c0.9,0,1.6,0.7,1.6,1.6l0,0c0,0.9-0.7,1.6-1.6,1.6h-2.8c-0.9,0-1.6-0.7-1.6-1.6l0,0
	C524.3,401.5,525,400.9,525.9,400.9z"/>
<path class="st5" d="M558.4,400.9h2.8c0.9,0,1.6,0.7,1.6,1.6l0,0c0,0.9-0.7,1.6-1.6,1.6h-2.8c-0.9,0-1.6-0.7-1.6-1.6l0,0
	C556.8,401.5,557.5,400.9,558.4,400.9z"/>
<path class="st5" d="M567.6,400.9h2.8c0.9,0,1.6,0.7,1.6,1.6l0,0c0,0.9-0.7,1.6-1.6,1.6h-2.8c-0.9,0-1.6-0.7-1.6-1.6l0,0
	C566,401.5,566.7,400.9,567.6,400.9z"/>
<path class="st5" d="M534.7,401.1h17.7c0.9,0,1.6,0.7,1.6,1.6l0,0c0,0.9-0.7,1.6-1.6,1.6h-17.7c-0.9,0-1.6-0.7-1.6-1.6l0,0
	C533.2,401.8,533.8,401.1,534.7,401.1z"/>
<path class="st5" d="M534.5,393.8h2.8c0.9,0,1.6,0.7,1.6,1.6l0,0c0,0.9-0.7,1.6-1.6,1.6h-2.8c-0.9,0-1.6-0.7-1.6-1.6l0,0
	C533,394.5,533.7,393.8,534.5,393.8z"/>
<path class="st5" d="M567.1,393.8h2.8c0.9,0,1.6,0.7,1.6,1.6l0,0c0,0.9-0.7,1.6-1.6,1.6h-2.8c-0.9,0-1.6-0.7-1.6-1.6l0,0
	C565.5,394.5,566.2,393.8,567.1,393.8z"/>
<path class="st5" d="M576.3,393.8h2.8c0.9,0,1.6,0.7,1.6,1.6l0,0c0,0.9-0.7,1.6-1.6,1.6h-2.8c-0.9,0-1.6-0.7-1.6-1.6l0,0
	C574.7,394.5,575.4,393.8,576.3,393.8z"/>
<path class="st5" d="M543.4,394.1h17.7c0.9,0,1.6,0.7,1.6,1.6l0,0c0,0.9-0.7,1.6-1.6,1.6h-17.7c-0.9,0-1.6-0.7-1.6-1.6l0,0
	C541.8,394.8,542.5,394.1,543.4,394.1z"/>
<path class="st5" d="M543.2,386.8h2.8c0.9,0,1.6,0.7,1.6,1.6l0,0c0,0.9-0.7,1.6-1.6,1.6h-2.8c-0.9,0-1.6-0.7-1.6-1.6l0,0
	C541.7,387.5,542.3,386.8,543.2,386.8z"/>
<path class="st5" d="M575.7,386.8h2.8c0.9,0,1.6,0.7,1.6,1.6l0,0c0,0.9-0.7,1.6-1.6,1.6h-2.8c-0.9,0-1.6-0.7-1.6-1.6l0,0
	C574.2,387.5,574.9,386.8,575.7,386.8z"/>
<path class="st5" d="M585,386.8h2.8c0.9,0,1.6,0.7,1.6,1.6l0,0c0,0.9-0.7,1.6-1.6,1.6H585c-0.9,0-1.6-0.7-1.6-1.6l0,0
	C583.4,387.5,584.1,386.8,585,386.8z"/>
<path class="st5" d="M552.1,387h17.7c0.9,0,1.6,0.7,1.6,1.6l0,0c0,0.9-0.7,1.6-1.6,1.6h-17.7c-0.9,0-1.6-0.7-1.6-1.6l0,0
	C550.5,387.7,551.2,387,552.1,387z"/>
<path class="st6" d="M504.9,490.5l-13.4-21.1l41.9-33.4l17.3-19.2c7.1-7.9,19.2-8.5,27-1.4c2.5,2.2,4.3,5.1,5.4,8.2l0,0
	c3.2,9.8-1.9,20.4-11.6,24l-27.3,10.1L504.9,490.5z"/>
<path class="st7" d="M191.7,337.5V440h71.9V337.5c0-1.5-1-2.9-2.4-3.3c-0.3-0.1-0.7-0.2-1-0.2h-65
	C193.2,334,191.7,335.6,191.7,337.5C191.7,337.5,191.7,337.5,191.7,337.5z M219.7,372.7c0-4.2,3.4-7.7,7.7-7.7
	c4.2,0,7.7,3.4,7.7,7.7v11.9c0,4.2-3.4,7.7-7.7,7.7c-4.2,0-7.7-3.4-7.7-7.7V372.7z"/>
<path class="st2" d="M191.5,436.8v9.9c0,1.1,0.9,1.9,1.9,1.9h68.4c1.1,0,1.9-0.9,1.9-1.9c0,0,0,0,0,0v-9.9H191.5z"/>
<path class="st7" d="M78.7,183v187.2c0,5,4,9,9,9h277.5c5,0,9-4,9-9V183c0-5-4-9-9-9H87.7C82.7,174,78.7,178,78.7,183z"/>
<path class="st5" d="M85.2,185.3v182.6c0,2.7,2.2,4.8,4.8,4.8c0,0,0,0,0,0h272.9c2.7,0,4.8-2.2,4.8-4.8V185.3c0-2.7-2.2-4.8-4.8-4.8
	H90C87.3,180.5,85.2,182.6,85.2,185.3C85.2,185.3,85.2,185.3,85.2,185.3z"/>
<path class="st7" d="M135.8,447.9c0.6,0.7,1.4,1.1,2.3,1.1h162.3c1.7,0,3-1.3,3-3c0-0.2,0-0.4-0.1-0.6l-2.5-12
	c-0.3-1.4-1.5-2.4-2.9-2.4H140.6c-1.4,0-2.6,1-2.9,2.4l-2.5,12C135,446.3,135.2,447.2,135.8,447.9z"/>
<path class="st2" d="M354,205.6H98.7c-0.6,0-1-0.4-1-1s0.4-1,1-1H354c0.6,0,1,0.4,1,1S354.6,205.6,354,205.6z"/>
<ellipse class="st1" cx="116.1" cy="192.3" rx="5.9" ry="6.1"/>
<ellipse class="st1" cx="136.6" cy="192.3" rx="5.9" ry="6.1"/>
<ellipse class="st1" cx="157.2" cy="192.3" rx="5.9" ry="6.1"/>
<path class="st1" d="M341.6,187.8H327c-0.6,0.1-1.1,0.6-1,1.2c0.1,0.5,0.5,0.9,1,1h14.6c0.6-0.1,1.1-0.6,1-1.2
	C342.5,188.2,342.1,187.8,341.6,187.8L341.6,187.8z"/>
<path class="st1" d="M341.6,191.9H327c-0.6,0.1-1.1,0.6-1,1.2c0.1,0.5,0.5,0.9,1,1h14.6c0.6-0.1,1.1-0.6,1-1.2
	C342.5,192.4,342.1,192,341.6,191.9L341.6,191.9z"/>
<path class="st1" d="M341.6,196.1H327c-0.6,0.1-1.1,0.6-1,1.2c0.1,0.5,0.5,0.9,1,1h14.6c0.6-0.1,1.1-0.6,1-1.2
	C342.5,196.5,342.1,196.1,341.6,196.1L341.6,196.1z"/>
<path class="st7" d="M693.6,441.1c0.9,2.6,3.4,4.4,6.2,4.3l26.5-0.7c2.8,0,5.3-1.9,6-4.7L736,400c1.3,0.6,2.8,0.9,4.2,0.9
	c5.3-0.1,9.6-4.6,9.4-9.9c-0.1-5.3-4.6-9.6-9.9-9.4c-0.6,0-1.2,0.1-1.7,0.2c-1.3-1.4-3-2.1-4.9-2.1l-40.8,1c-0.3,0-0.7,0.1-1,0.1
	c-3.4,0.6-5.7,3.9-5.1,7.4c0,0,0,0,0,0c0.1,0.3,0.1,0.6,0.2,0.8L693.6,441.1z M736.8,397.3l2.7-9.5c0.3-1.1,0.3-2.3,0-3.4
	c0.1,0,0.2-0.1,0.4-0.1c3.8,0,6.9,3.1,6.9,7c0,3.7-2.9,6.7-6.5,6.9C739,398.1,737.8,397.9,736.8,397.3L736.8,397.3z"/>
<path class="st2" d="M691.4,380.8c0.9,5,10.6,8.5,22.4,7.8c10.8-0.5,19.6-4.3,21.2-8.8c-0.6-0.2-1.2-0.3-1.8-0.2l-40.8,1
	C692.1,380.7,691.7,380.7,691.4,380.8z"/>
<path class="st3" d="M715.9,419.1c0.1,0,0.1,0,0.2-0.1l5.8-3.8c0.2-0.1,0.3-0.5,0.2-0.7c0-0.1-0.1-0.1-0.2-0.1l-6-3.9
	c-0.2-0.2-0.5-0.1-0.7,0.1c-0.2,0.2-0.1,0.5,0.1,0.7c0,0,0.1,0,0.1,0.1l5.3,3.5l-5.1,3.4c-0.2,0.1-0.3,0.5-0.2,0.7
	C715.5,419,715.7,419.1,715.9,419.1L715.9,419.1z"/>
<path class="st3" d="M706.8,419.5c0.3-0.1,0.4-0.3,0.4-0.6c0-0.1-0.1-0.2-0.2-0.3l-5.3-3l5.1-3.8c0.2-0.2,0.3-0.5,0.1-0.7
	c-0.2-0.2-0.5-0.3-0.7-0.1l-5.7,4.3c-0.2,0.2-0.3,0.5-0.1,0.7l0,0c0,0.1,0.1,0.1,0.2,0.1l6,3.4C706.6,419.5,706.7,419.5,706.8,419.5
	z"/>
<path class="st3" d="M715.3,422.4l0.1,0c0.2-0.1,0.3-0.5,0.2-0.7l0,0l-8.2-13.4c-0.1-0.2-0.4-0.3-0.7-0.2c-0.2,0.1-0.3,0.4-0.2,0.7
	c0,0,0,0,0,0.1l8.2,13.4C714.9,422.3,715.1,422.4,715.3,422.4z"/>
<path class="st3" d="M212.6,260.8h44.2c1.8,0,3.3,1.5,3.3,3.3v4.3c0,1.8-1.5,3.3-3.3,3.3h-44.2c-1.8,0-3.3-1.5-3.3-3.3v-4.3
	C209.4,262.3,210.8,260.8,212.6,260.8z"/>
<path class="st8" d="M186.9,282.5h95.7c1.8,0,3.3,1.5,3.3,3.3v4.3c0,1.8-1.5,3.3-3.3,3.3h-95.7c-1.8,0-3.3-1.5-3.3-3.3v-4.3
	C183.6,284,185.1,282.5,186.9,282.5z"/>
<path class="st8" d="M186.9,304.2h95.7c1.8,0,3.3,1.5,3.3,3.3v4.3c0,1.8-1.5,3.3-3.3,3.3h-95.7c-1.8,0-3.3-1.5-3.3-3.3v-4.3
	C183.6,305.7,185.1,304.2,186.9,304.2z"/>
<path class="st1" d="M290.7,376.9l0.2,0.7l0,0l6.5,19.8l7.6,22.9l14.1,43l0.1,6.7l0,0l1,53.7l-2.9,7.3l3.3,11.9c0,0-1.5-18-9.6-7.7
	c-4.6,5.9-9.9,11.9-14.3,17.5c6.4,2.6,12.9,4.9,19.5,7c1.4,0.5,2.9,0.9,4.3,1.3l0.9,0.3c21.9,6.5,44.5,10.1,67.4,10.8
	c1.2,0,2.4,0.1,3.5,0.1h1.2h3.8c2.6,0,5.1,0,7.7-0.1c18.9-0.5,37.7-3.1,56.1-7.6c-0.1-7.6-0.5-16.5-1-25.9
	c-0.2-4.6-5.4-9.7-5.7-14.5c-0.2-3.7,4.4-7.1,4.1-10.8c-1.5-22.8-3.5-14.1-4.9-30.2c-0.1-1.6-0.3-3.1-0.4-4.6
	c-0.9-10.4-1.6-16.9-1.6-16.9l6.2-38.6l9.6-60.7l-0.8-1.2l-0.8-0.4l-50.8-25.2l-2.8-7.1c-1.7-4.2-5.7-6.9-10.1-6.9l-33.5-0.1
	c-3.5,0-6.8,1.7-8.9,4.5l-9.1,12.6L290.7,376.9z"/>
<path class="st1" d="M326.8,453.6l-7.6,16.2L314,481l-8.9,46.6l-4.5,4.7l-3.8-16.8l-40,8.9c-1.3-7.3-0.4,0.2-1.2-7.8l0.7-0.7
	c0.6-0.6,1.2-1.2,1.2-1.7c-0.5-27.6,0.9-74.5,12.4-103c1.8-4.6,4.1-9,7-13.1c0.2-0.3,0.5-0.6,0.7-0.9c5.3-7.4,8.6-14.6,13.3-19.8
	l0,0l0.1-0.1l0,0l32.5-17.2l1.4,39.1l1,28.1L326.8,453.6z"/>
<path class="st1" d="M443.8,458.3l9.5,20.3l3.3,7.1l8.9,46.6l4.5,4.7l3.8-16.8l1.8-0.4l32.4-6.7l9.5,30c4.4-7.3,3-16.7-3.3-22.5
	c-0.7-0.6-1.2-1.2-1.2-1.7c0.5-32.5-1.5-91.7-19.4-116.1c-5.7-7.7-9.1-15.4-14.1-20.8l0,0l-12.1-19.8l-0.7-1.2l-0.8-0.4L443.8,458.3
	z"/>
<circle id="a657ec4b-47ce-4d2a-9c58-81a811696ca9" class="st6" cx="386.4" cy="267.2" r="44.6"/>
<path class="st7" d="M446.6,236.1c-0.7-0.7-1.7-1.2-2.7-1.2l0.7-1.9c0.7-1.8-0.2-3.8-2.1-4.5c0,0,0,0,0,0c-0.6-0.2-1.3-0.3-1.9-0.2
	l-2.4,0.5l0.2-1.6c0.3-1.9-1-3.7-3-4c-0.6-0.1-1.2,0-1.8,0.2c-1.1,0.4-2.2,0.3-3.2-0.2c-1-0.5-1.7-1.5-1.9-2.6l-0.9-4.1l-0.1-0.2
	c-4.1-6.9-12.1-11.9-21.8-13.8c-8.7-1.6-17.6-0.8-26.1,0c-3.4,0.3-7.2,0.7-10.4,2.6c-2.7,1.7-5,5-4.5,8.4c-8.5-2.6-17.5,2.6-22,9.1
	c-5.3,7.8-6.2,17.5-6.3,25.1c-0.4,18,3.3,32.7,11,43.7c0.6,0.8,0.7,2.5,1.8,3l-0.2-0.4c1.2,0.6,2.5,1.6,2,2.7
	c-1.4,3.1,7.6,9.9,13.9,12.1c11.5,4.1,26.9,3.8,37.6,2.3l0.4-2.5c3.9-0.5,6.6-1.5,7.4-3.1c1.4-1.2,2.5-2.2,3.5-3.2l0,0l0.1-0.1
	c4.9-4.7,6-7.3,6.5-11.4s-0.4-8-1.3-11.6c18.7,2.9-7.4-20,10.1-24.4c0.2-0.1,0.4-0.1,0.6-0.1c0.5-0.1,1-0.2,1.5-0.4
	c2.4-0.6,4.6-1.6,6.7-2.9c4.9-3,6.5-6.9,9-11.4C447.8,238.8,447.6,237.2,446.6,236.1z"/>
<path class="st1" d="M544,461.4c0,1.8,0,4.2-0.1,7.2c0,0.4,0,0.9,0,1.3c-0.1,5.6-0.3,10.2-0.5,15.4c0,0.4,0,0.7,0,1.1
	c-0.3,7.2-0.7,15.7-1.5,29c-1.4,24.7-3.9,3.4-6.3,12c-0.1,0.4-0.2,0.9-0.4,1.5c-0.4,2.2-1,4.3-1.9,6.3c-1.3,0.8-2.7,1.5-4,2.3
	c-3.8,2.1-7.6,4.1-11.5,6.1c-2.2,1.1-4.4,2.1-6.6,3.2l-1,0.5c-11.3,5.2-22.9,9.6-34.8,13.3c-2.3,0.7-4.6,1.4-7,2s-4.9,1.3-7.4,1.9
	c-18.4,4.5-37.2,7.1-56.2,7.7c-2.5,0.1-5.1,0.1-7.7,0.1h-3.8h-1.2l-3.5-0.1c-22.8-0.7-45.5-4.4-67.4-10.8l-0.9-0.3
	c-1.4-0.4-2.9-0.9-4.3-1.3c-6.6-2.1-13.1-4.4-19.5-7c-4.9-2-9.7-4.1-14.5-6.3l-0.1-0.1c-1-0.5-2-0.9-3-1.4l-0.4-0.2
	c-3.7-1.8-7.4-3.7-11.1-5.7c-3.1-7-7.4-8.4-10.1-14.6c-0.8-1.8-1.3-3.8-1.7-5.7c0,0,0,0,0-0.1c0.3,3.7-1.2-6.6,0,0
	c0-0.1,0-0.2,0-0.4c0-0.4-0.1-0.8-0.1-1.3c-3.4-33.5-3.2-71.8-4.7-103.4c-0.1-2-0.2-4-0.3-5.9c0-0.6-0.1-1.2-0.1-1.8
	c0.1-0.2,0.1-0.4,0.2-0.5c0-0.1,0-0.1,0.1-0.1c0-0.1,0.1-0.1,0.1-0.2l0.1-0.1c0,0,0-0.1,0.1-0.1c0.1-0.1,0.2-0.3,0.3-0.4l0.1-0.2
	l0.1-0.1c0,0,0.1-0.1,0.1-0.1l0.1-0.1l0.1-0.1c0.1-0.1,0.2-0.2,0.3-0.2c0.4-0.3,0.7-0.6,1.1-0.9l0.4-0.3c1-0.6,2.1-1.1,3.2-1.5
	l1.2-0.4l0.4-0.1c0.2-0.1,0.4-0.1,0.7-0.2c1.1-0.3,2.4-0.6,3.7-0.9l0.5-0.1l0.7-0.1l1-0.2c3-0.5,6.3-0.8,10.1-1l1-0.1l1.2-0.1h1.1
	h1.1l3.1-0.1c3-0.1,6.2,0,9.5,0c1.5,0,3.1,0.1,4.8,0.1h0.3c1.4,0,2.8,0.1,4.3,0.2l3.1,0.2l2.9,0.2l2.3,0.1l2,0.1l0.9,0.1l1.5,0.1
	l3.3,0.3l3.4,0.3l3.4,0.3h0.3l3.1,0.3l0.7,0.1l3,0.3l0.9,0.1c0.8,0.1,1.6,0.2,2.4,0.3c1,0.1,2.1,0.2,3.2,0.4l2.4,0.3l3.9,0.5
	l1.5,0.2c3.7,0.5,7.4,1,11.2,1.5c5.7,0.8,11.5,1.7,17.4,2.6s11.8,2,17.7,3l4.5,0.8l2,0.4l3.5,0.6l3.5,0.7l4.1,0.8
	c9.1,1.8,18.1,3.7,27,5.7l4.3,1c2.9,0.7,5.7,1.4,8.6,2l2.3,0.6c1.9,0.5,3.8,1,5.7,1.5l0.3,0.1c1.4,0.3,2.8,0.7,4.1,1
	c3.2,0.8,6.4,1.7,9.5,2.5c2.1,0.6,4.1,1.1,6.1,1.7c3,0.9,6,1.8,8.8,2.6l2.1,0.6c2.1,0.6,4.2,1.3,6.2,2c1.6,0.5,3.2,1,4.7,1.6
	s3,1.1,4.5,1.6l2.8,1c1.4,0.5,2.7,1,4,1.5l1.2,0.5l0.7,0.3l1.4,0.6c0.5,0.2,0.9,0.4,1.4,0.6l1.3,0.6c0.5,0.2,0.9,0.4,1.3,0.6
	s0.7,0.3,1.1,0.5c0.7,0.3,1.4,0.6,2.1,0.9l1,0.5l0.8,0.4l0.3,0.2l0.8,0.4c0.6,0.3,1.2,0.6,1.7,0.8l2.2,1.1l2.1,1.1l0.3,0.2l0.5,0.2
	c0.5,0.3,1,0.6,1.5,0.9c1,0.6,1.9,1.2,2.7,1.8l0.6,0.4c0.6,0.5,1.2,0.9,1.8,1.3l0,0l0.5,0.4l0.5,0.4c0.5,0.5,1,0.9,1.4,1.3
	c0.1,0.1,0.3,0.3,0.4,0.4l0.2,0.2c0.2,0.2,0.4,0.4,0.5,0.6c0,0,0.1,0.1,0.1,0.1c0.2,0.3,0.5,0.6,0.7,0.8s0.2,0.3,0.3,0.4
	s0.2,0.4,0.3,0.5s0.2,0.3,0.2,0.4c0.2,0.4,0.4,0.7,0.5,1.1c0.1,0.3,0.2,0.5,0.3,0.8C543.9,461,543.9,461.2,544,461.4z"/>
<path class="st9" d="M544,461.4c0,1.8,0,4.2-0.1,7.2c0,0.4,0,0.9,0,1.3c-0.1,4.2-0.2,9.5-0.5,15.4c0,0.4,0,0.7,0,1.1
	c-0.3,7.2-0.7,15.7-1.5,29c-1.4,24.7-3.9,3.4-6.3,12c-6.9-4.2-14.4-8.6-22.4-13.2c-1.5-0.8-2.9-1.7-4.4-2.5
	c-16.1-9-34-18.4-52.8-27.7l-2.2-1.1c-43-21.2-89.8-41.9-127.8-55.7c-7.3-2.7-14.3-5.1-20.9-7.2c-13.9-4.4-25.8-7.5-35.1-8.9
	c-9.6-1.4-16.2-0.9-18.9,2c-0.1-2-0.2-4-0.3-5.9c0-0.6-0.1-1.2-0.1-1.8c0.1-0.2,0.1-0.3,0.2-0.5v-0.1c0-0.1,0-0.1,0.1-0.1
	c0-0.1,0.1-0.1,0.1-0.2c0-0.1,0.1-0.1,0.1-0.2c0.1-0.1,0.2-0.3,0.3-0.4c0.1-0.1,0.2-0.2,0.3-0.3c0,0,0.1-0.1,0.1-0.1l0.1-0.1
	l0.1-0.1c0.1-0.1,0.2-0.2,0.3-0.2c0.4-0.3,0.7-0.6,1.1-0.9l0.4-0.3c1-0.6,2.1-1.1,3.2-1.5l1.2-0.4l0.4-0.1c0.2-0.1,0.4-0.1,0.7-0.2
	c1.1-0.3,2.4-0.6,3.7-0.9l1.2-0.2l1-0.2c3-0.5,6.3-0.8,10.1-1l1-0.1l1.2-0.1h1.1h1.1l3.1-0.1c3,0,6.2,0,9.5,0c1.5,0,3.1,0.1,4.8,0.1
	h0.3c1.4,0,2.8,0.1,4.3,0.2l3.1,0.2l2.9,0.2l2.3,0.1l2,0.1l2.4,0.2l3.3,0.3l3.4,0.3l3.4,0.3h0.3l3.1,0.3c5.8,0.6,11.8,1.3,18,2.1
	c3.7,0.5,7.4,1,11.2,1.5c5.7,0.8,11.5,1.7,17.4,2.6s11.8,2,17.7,3l4.5,0.8c1.8,0.3,3.7,0.7,5.5,1l3.5,0.7l4.1,0.8
	c9.1,1.8,18.1,3.7,27,5.7l4.3,1c2.9,0.7,5.7,1.4,8.6,2l2.3,0.6l5.7,1.4l0,0l0.3,0.1l4.1,1.1c3.2,0.8,6.4,1.7,9.5,2.5
	c2.1,0.6,4.1,1.1,6.1,1.7c3,0.9,6,1.8,8.8,2.6l2.1,0.6c2.1,0.7,4.2,1.3,6.2,2c1.6,0.5,3.2,1,4.7,1.6s3,1.1,4.5,1.6l2.8,1
	c1.4,0.5,2.7,1,4,1.5l1.2,0.5c0.7,0.3,1.4,0.6,2.1,0.9c0.5,0.2,0.9,0.4,1.4,0.6l1.3,0.6c0.5,0.2,0.9,0.4,1.3,0.6s0.7,0.3,1.1,0.5
	c0.7,0.3,1.4,0.6,2.1,0.9l1,0.5l0.8,0.4l0.3,0.2c0.8,0.4,1.7,0.8,2.5,1.2l2.2,1.1c0.8,0.4,1.6,0.9,2.4,1.3l0.5,0.2
	c0.5,0.3,1,0.6,1.5,0.9c1,0.6,1.9,1.2,2.7,1.8s1.6,1.1,2.3,1.7l0,0l1,0.8c0.5,0.5,1,0.9,1.4,1.3c0.1,0.1,0.3,0.3,0.4,0.4
	c0.1,0,0.1,0.1,0.2,0.2l0.6,0.7c0.2,0.3,0.5,0.6,0.7,0.8s0.2,0.3,0.3,0.4s0.2,0.4,0.3,0.5s0.2,0.3,0.2,0.4c0.2,0.4,0.4,0.7,0.5,1.1
	c0.1,0.3,0.2,0.5,0.3,0.8C543.9,460.8,544,461.1,544,461.4z"/>
</svg>
