<svg id="Layer_1" data-name="Layer 1" xmlns="http://www.w3.org/2000/svg" viewBox="0 0 844.67 595.26"><defs><style>.cls-1{fill:#9455d3;}.cls-2{fill:#f4f4f5;}.cls-3,.cls-5{fill:#f2f2f2;}.cls-3{stroke:#f4f4f5;stroke-miterlimit:10;}.cls-4{fill:#e4e4e7;}.cls-6{fill:#3f3d56;}.cls-7{fill:#2f2e41;}.cls-8{fill:#a0616a;}.cls-9{fill:#27272a;}.cls-10{fill:#18181b;}.cls-11{fill:#ffb8b8;}.cls-12{fill:#d4d4d8;}.cls-13{fill:#3f3f46;}</style></defs><circle class="cls-1" cx="431.39" cy="548" r="46"/><path class="cls-2" d="M706.19,591.42c25.74-7.73,53.1-15.79,73.51-34.17,18.23-16.41,30.55-41.48,23-66.11s-30.12-40.95-53.44-49.1c-13.23-4.62-27.06-7.19-40.89-9.2-15-2.19-30.14-4-45.23-5.71q-91.68-10.49-184-12.81c-30.38-.77-60.76-.75-91.15-.31-27.14.39-55.72.38-80.9-11.15-19.58-9-37.35-25.29-42.8-46.73-6.3-24.76,5.32-50,22-67.9,8.78-9.45,19.05-17.4,29.64-24.71,11.48-7.94,23.37-15.31,35.52-22.19a494.37,494.37,0,0,1,74.76-34.47c12.75-4.63,25.68-8.63,38.73-12.32,11-3.12,22.07-6.23,32.72-10.48,20.58-8.2,40.16-22.1,45.39-44.88,5-21.59-3.4-45-18.06-61.07-17-18.56-42.54-26.69-67.06-28-27.53-1.48-54.43,5.41-80.3,14.16-27.6,9.32-54.6,20-82.78,27.6a557.58,557.58,0,0,1-85.19,15.84c-14.09,1.5-28.6,3.19-42.76,2-11.87-1-23.69-4.45-32.44-12.88-7.5-7.22-12-17.15-10.43-27.63.28-1.9,3.17-1.09,2.89.8-1.87,12.75,6.8,24.51,17.49,30.53,12.34,7,27.37,7,41.12,6.17A537.24,537.24,0,0,0,274,93.93c28.6-6.53,56.17-15.86,83.71-25.84,26.15-9.47,52.89-18.71,80.84-20.76,24.24-1.78,49.75,1.75,70.87,14.42,18.56,11.14,32.22,29.71,36.57,51,4.25,20.82-1.64,41.78-17.4,56.32-16.33,15-38.71,21.47-59.56,27.4-26.45,7.51-52.34,16.3-77.39,27.7a485.26,485.26,0,0,0-72.8,40.93c-22.25,15.2-44.2,34.33-51.24,61.45-3.28,12.63-2.67,26,2.81,38,4.88,10.61,12.91,19.53,22.26,26.41,22.32,16.43,50.46,19.8,77.42,20.14,30.28.37,60.56-.65,90.85-.15q92.61,1.51,184.82,11.27,23.12,2.44,46.16,5.41c13.82,1.77,27.69,3.54,41.28,6.69,24.16,5.61,47.67,16.39,62.69,36.88a61.43,61.43,0,0,1,11.95,30.45c1.05,11.52-1.77,23.07-7,33.32-11.54,22.69-33.14,37.12-56.08,46.6-12.28,5.08-25,8.93-37.75,12.75-1.85.55-2.64-2.34-.8-2.89Z"/><circle class="cls-3" cx="125.89" cy="69.5" r="24"/><circle class="cls-2" cx="292.39" cy="115" r="24"/><circle class="cls-2" cx="433.39" cy="24" r="24"/><circle class="cls-4" cx="521.39" cy="126" r="24"/><circle class="cls-2" cx="402.39" cy="244" r="24"/><circle class="cls-2" cx="251.39" cy="301" r="24" transform="translate(-85.99 500.93) rotate(-80.78)"/><circle class="cls-5" cx="411.39" cy="390" r="24"/><circle class="cls-5" cx="583.39" cy="440" r="24"/><circle class="cls-2" cx="784.39" cy="429" r="24"/><path class="cls-1" d="M426.46,68c-71.89.51-130.76,58.93-131.78,130.82,0,.66,0,5.33,0,11.43A33.75,33.75,0,0,0,328.41,244h0a33.76,33.76,0,0,0,33.76-33.78V203a64,64,0,1,1,98.52,53.88h0s-48,30.92-62.67,73.34h0A94.05,94.05,0,0,0,394.17,357c0,3.73.22,36.32.64,62.78A34.79,34.79,0,0,0,429.6,454h0a34.8,34.8,0,0,0,34.8-34.8,1.48,1.48,0,0,0,0-.21c-.14-24.23-.22-52.44-.22-54.49,0-26,25.12-52,45.76-68.92,23.77-19.48,40.87-46,47.74-76a86.6,86.6,0,0,0,2.5-18.83A132.75,132.75,0,0,0,427.42,68Z"/><path class="cls-6" d="M843.48,595.26H1.18a1.19,1.19,0,0,1,0-2.38h842.3a1.19,1.19,0,0,1,0,2.38Z"/><circle class="cls-7" cx="628.44" cy="243" r="30"/><polygon class="cls-8" points="573.01 582.13 560.75 582.13 554.91 534.84 573.01 534.84 573.01 582.13"/><path class="cls-9" d="M552,578.63h23.64v14.88H537.1A14.89,14.89,0,0,1,552,578.63Z"/><polygon class="cls-8" points="668.01 582.13 655.75 582.13 649.91 534.84 668.01 534.84 668.01 582.13"/><path class="cls-9" d="M647,578.63h23.64v14.88H632.1A14.89,14.89,0,0,1,647,578.63Z"/><circle class="cls-8" cx="623.88" cy="248.61" r="24.56"/><path class="cls-10" d="M638.52,352.41l11-25.25a31.37,31.37,0,0,0-7-35.6,30,30,0,0,0-3.07-2.67,30.83,30.83,0,0,0-19-6.57,32,32,0,0,0-13.4,3l-1.07.5c-.69.33-1.37.69-2,1.06a31.66,31.66,0,0,0-15.7,23.88l-4.85,40.64c-1.22,3.19-44.74,118.39-29.52,206.34a4.49,4.49,0,0,0,3.82,3.67l15.43,2.1a4.5,4.5,0,0,0,5-3.53l25.89-123.41a3.5,3.5,0,0,1,6.8-.23L647.46,566.1a4.49,4.49,0,0,0,4.31,3.28,6.25,6.25,0,0,0,.87-.08l18.85-3.63a4.47,4.47,0,0,0,3.63-4.81C672.35,530,657.63,375.24,638.52,352.41Z"/><path class="cls-8" d="M528.43,269.05a10.05,10.05,0,0,0,8.83,11.15,9.5,9.5,0,0,0,1.77.05l13.73,33,10.38-15.4-14.63-29a10.11,10.11,0,0,0-20.08.17Z"/><path class="cls-8" d="M622.52,385.63a10.05,10.05,0,0,0,8.79-11.18,10.34,10.34,0,0,0-.36-1.74l28.88-21-17.39-6.51-24.76,21a10.11,10.11,0,0,0,4.84,19.49Z"/><path class="cls-10" d="M575.43,335.24a17.31,17.31,0,0,1-3.29-.32,16.32,16.32,0,0,1-11.95-9.62L541,301.85a4.52,4.52,0,0,1,.63-6.34,5.22,5.22,0,0,1,.48-.34l13.69-8.47a4.49,4.49,0,0,1,6.19,1.45l0,0,13.56,22.33,26-19.19a9.72,9.72,0,0,1,11.31,15.56l-25.91,23.64A16.26,16.26,0,0,1,575.43,335.24Z"/><path class="cls-10" d="M645.58,370.51h-.1a4.49,4.49,0,0,1-3.31-1.57L630,354.75a4.5,4.5,0,0,1,.49-6.35c.14-.11.28-.22.43-.32l22.78-15.19-20.64-24.81A9.73,9.73,0,0,1,648,295.89L673,320.41a16.53,16.53,0,0,1-3.67,26.94l-20.5,21.75A4.52,4.52,0,0,1,645.58,370.51Z"/><path class="cls-2" d="M617.64,318.21a5.83,5.83,0,0,1-.59,0,4.47,4.47,0,0,1-3.71-3.07l-9.14-28a3.09,3.09,0,0,1,1.6-3.73l.29-.14.81-.37a32.43,32.43,0,0,1,13.6-3A31.32,31.32,0,0,1,637.66,285a3.13,3.13,0,0,1,.91,4.3l-17.15,26.86A4.44,4.44,0,0,1,617.64,318.21Z"/><circle class="cls-9" cx="652.09" cy="219.79" r="9.82"/><path class="cls-9" d="M618.44,209h0a26,26,0,0,0-26,26v11H606l6.47-11,1.94,11h41.06l-11-11A26,26,0,0,0,618.44,209Z"/><path class="cls-9" d="M657.14,213.06a15.14,15.14,0,0,1,16.48-10.39c6.26,1,11.2,6.07,14.15,11.69s4.31,11.9,6.29,17.93,4.79,12.08,9.79,16,12.68,5,17.59.95A20.11,20.11,0,0,1,684,256.4c-2.6-4.61-3.27-10-4-15.25s-1.77-10.65-4.87-14.94-8.88-7.1-13.8-5.14Z"/><path class="cls-6" d="M337.94,228h0a33.74,33.74,0,0,1-33.74-33.75c0-6.1,0-10.77,0-11.43A131.42,131.42,0,0,1,319.57,123a131.77,131.77,0,0,0-25.36,75.91c0,.66,0,5.33,0,11.43A33.74,33.74,0,0,0,327.94,244h0a33.78,33.78,0,0,0,32.49-24.59A33.63,33.63,0,0,1,337.94,228Z"/><path class="cls-10" d="M428.75,139.11a64,64,0,0,1,55.66,89.41,64,64,0,1,0-107.43-67A63.87,63.87,0,0,1,428.75,139.11Z"/><path class="cls-10" d="M439.13,438h0a34.79,34.79,0,0,1-34.79-34.22c-.43-26.46-.64-59.06-.64-62.78a93.7,93.7,0,0,1,3.87-26.77h0a94.49,94.49,0,0,1,5.49-12.7,109.89,109.89,0,0,0-15.49,28.7h0A93.7,93.7,0,0,0,393.7,357c0,3.72.21,36.32.64,62.78A34.79,34.79,0,0,0,429.13,454h0A34.8,34.8,0,0,0,462.53,429,34.68,34.68,0,0,1,439.13,438Z"/><polygon class="cls-11" points="126.53 582.59 138.79 582.58 144.63 535.3 126.53 535.3 126.53 582.59"/><path class="cls-9" d="M162.44,594H123.91V579.08h23.64A14.89,14.89,0,0,1,162.44,594Z"/><polygon class="cls-11" points="82.53 582.59 94.79 582.58 100.63 535.3 82.53 535.3 82.53 582.59"/><path class="cls-9" d="M118.44,594H79.91V579.08h23.64A14.89,14.89,0,0,1,118.44,594Z"/><path class="cls-9" d="M93.25,568l-12-.63a4.67,4.67,0,0,1-4.42-4.91v-.06L91.17,404l65.91,17.78,6.35-1.73L143.57,560.32a4.7,4.7,0,0,1-4.36,3.94l-12.91.6a4.67,4.67,0,0,1-4.92-4.41c0-.12,0-.25,0-.38l2.34-84.2a1.56,1.56,0,0,0-3.08-.36L98.07,564.32a4.64,4.64,0,0,1-4.57,3.73Z"/><circle class="cls-11" cx="128.74" cy="249.76" r="24.56"/><path class="cls-12" d="M87.84,321.92l2.7,58.27,1,21.19a4.66,4.66,0,0,0,3.07,4.18l63.34,22.94a4.35,4.35,0,0,0,1.6.28,4.65,4.65,0,0,0,4.67-4.62,1,1,0,0,0,0-.17L161.6,319.23a36.94,36.94,0,0,0-30.75-35.68c-.61-.09-1.23-.19-1.86-.27a36.26,36.26,0,0,0-29.16,9.44,37.24,37.24,0,0,0-12,29.2Z"/><path class="cls-11" d="M188.19,416.88a10.07,10.07,0,0,1-6.63-12.6,10,10,0,0,1,1.26-2.63l-21.48-28.56,18.53-1.15,17.56,27.3a10.11,10.11,0,0,1-9.24,17.64Z"/><path class="cls-12" d="M173.08,396.48a4.68,4.68,0,0,1-2.54-2.52l-32.35-77.09a12.46,12.46,0,0,1,23-9.67v0l32.36,77.1a4.67,4.67,0,0,1-2.5,6.11l-14.37,6a4.63,4.63,0,0,1-3.58,0Z"/><path class="cls-13" d="M120.84,393.76l31.08-59.51a4.88,4.88,0,0,1,6.57-2.06l45.11,23.56a4.87,4.87,0,0,1,2.07,6.57l-31.08,59.51A4.88,4.88,0,0,1,168,423.9L122.9,400.34A4.89,4.89,0,0,1,120.84,393.76Z"/><path class="cls-11" d="M141.68,366.57a10.06,10.06,0,0,0-13-5.87,9.77,9.77,0,0,0-2.55,1.41L96.39,342.36l0,18.57,28.28,15.91a10.11,10.11,0,0,0,17.06-10.27Z"/><path class="cls-12" d="M104,370.75,79.7,351.47a17.16,17.16,0,0,1-7.83-27.13l22.1-29a10.09,10.09,0,0,1,17.13,10.28l-17.49,28.6,25.7,12.19a4.67,4.67,0,0,1,2.22,6.22,4.82,4.82,0,0,1-.27.5l-10.37,16.41a4.67,4.67,0,0,1-3.17,2.11l-.08,0A4.74,4.74,0,0,1,104,370.75Z"/><path class="cls-9" d="M110.18,266.21a2.14,2.14,0,0,1,1.33-2.72,2.28,2.28,0,0,1,.52-.1,4.93,4.93,0,0,1,3.48,1.71,13.84,13.84,0,0,0,3.07,2.64c1.19.6,2.8.51,3.48-.63s.2-2.51-.19-3.75a36.87,36.87,0,0,1-1.63-9.77c-.11-3.7.41-7.57,2.46-10.45,2.65-3.73,7.37-5.14,11.85-5s8.87,1.49,13.3,2.36c1.53.3,3.33.45,4.36-.73s.68-3.3.22-5c-1.2-4.41-2.47-9-5.26-12.55a19,19,0,0,0-12.06-6.79,29,29,0,0,0-13.47,1.53A36.09,36.09,0,0,0,104,229.23a29.24,29.24,0,0,0-5.58,21.6,26.66,26.66,0,0,0,9.89,16.85Z"/><path class="cls-10" d="M421.25,582.78a46,46,0,0,1-17.07-71.49,46,46,0,1,0,62.57,66.47A46,46,0,0,1,421.25,582.78Z"/></svg>